<mxfile host="Electron" agent="Mozilla/5.0 (Windows NT 10.0; Win64; x64) AppleWebKit/537.36 (KHTML, like Gecko) draw.io/28.1.2 Chrome/138.0.7204.243 Electron/37.4.0 Safari/537.36" version="28.1.2">
  <diagram name="Página-1" id="z63PxHCw3cxyB8DSqkFZ">
    <mxGraphModel dx="1042" dy="626" grid="1" gridSize="10" guides="1" tooltips="1" connect="1" arrows="1" fold="1" page="1" pageScale="1" pageWidth="827" pageHeight="1169" math="0" shadow="0">
      <root>
        <mxCell id="0" />
        <mxCell id="1" parent="0" />
        <mxCell id="9fTf8SFcKyJFwVSSnWBv-1" value="" style="strokeWidth=1;shadow=0;dashed=0;align=center;html=1;shape=mxgraph.mockup.containers.browserWindow;rSize=0;strokeColor=#666666;strokeColor2=#008cff;strokeColor3=#c4c4c4;mainText=,;recursiveResize=0;" parent="1" vertex="1">
          <mxGeometry x="160" y="80" width="510" height="320" as="geometry" />
        </mxCell>
        <mxCell id="9fTf8SFcKyJFwVSSnWBv-2" value="Page 1" style="strokeWidth=1;shadow=0;dashed=0;align=center;html=1;shape=mxgraph.mockup.containers.anchor;fontSize=17;fontColor=#666666;align=left;whiteSpace=wrap;" parent="9fTf8SFcKyJFwVSSnWBv-1" vertex="1">
          <mxGeometry x="60" y="12" width="110" height="26" as="geometry" />
        </mxCell>
        <mxCell id="9fTf8SFcKyJFwVSSnWBv-3" value="https://www.draw.io" style="strokeWidth=1;shadow=0;dashed=0;align=center;html=1;shape=mxgraph.mockup.containers.anchor;rSize=0;fontSize=17;fontColor=#666666;align=left;" parent="9fTf8SFcKyJFwVSSnWBv-1" vertex="1">
          <mxGeometry x="130" y="60" width="250" height="26" as="geometry" />
        </mxCell>
        <mxCell id="9fTf8SFcKyJFwVSSnWBv-4" value="&lt;b&gt;&lt;font style=&quot;font-size: 16px;&quot;&gt;Consultar Usuario&lt;/font&gt;&lt;/b&gt;" style="text;html=1;whiteSpace=wrap;strokeColor=none;fillColor=none;align=center;verticalAlign=middle;rounded=0;" parent="9fTf8SFcKyJFwVSSnWBv-1" vertex="1">
          <mxGeometry x="172.5" y="120" width="165" height="30" as="geometry" />
        </mxCell>
        <mxCell id="9fTf8SFcKyJFwVSSnWBv-5" value="*Identificación" style="text;html=1;whiteSpace=wrap;strokeColor=none;fillColor=none;align=center;verticalAlign=middle;rounded=0;" parent="9fTf8SFcKyJFwVSSnWBv-1" vertex="1">
          <mxGeometry x="130" y="170" width="80" height="30" as="geometry" />
        </mxCell>
        <mxCell id="9fTf8SFcKyJFwVSSnWBv-39" value="Buscar Usuario" style="rounded=1;fillColor=#0057D8;strokeColor=none;html=1;whiteSpace=wrap;fontColor=#ffffff;align=center;verticalAlign=middle;fontStyle=0;fontSize=12;sketch=0;" parent="9fTf8SFcKyJFwVSSnWBv-1" vertex="1">
          <mxGeometry x="280" y="270" width="110" height="40" as="geometry" />
        </mxCell>
        <mxCell id="9fTf8SFcKyJFwVSSnWBv-41" value="Cancelar" style="rounded=1;fillColor=#647687;strokeColor=#314354;html=1;whiteSpace=wrap;align=center;verticalAlign=middle;fontStyle=0;fontSize=12;sketch=0;fontColor=#ffffff;" parent="9fTf8SFcKyJFwVSSnWBv-1" vertex="1">
          <mxGeometry x="140" y="270" width="110" height="40" as="geometry" />
        </mxCell>
        <mxCell id="9fTf8SFcKyJFwVSSnWBv-42" value="" style="shape=rect;fillColor=#F6F6F6;strokeColor=none;" parent="9fTf8SFcKyJFwVSSnWBv-1" vertex="1">
          <mxGeometry x="226" y="175" width="164" height="20" as="geometry" />
        </mxCell>
        <mxCell id="9fTf8SFcKyJFwVSSnWBv-43" value="" style="html=1;strokeWidth=1;shadow=0;dashed=0;shape=mxgraph.ios7ui.marginRect;rx=3;ry=3;rectMargin=5;fillColor=#E4E4E4;strokeColor=none;" parent="9fTf8SFcKyJFwVSSnWBv-42" vertex="1">
          <mxGeometry width="164" height="20" as="geometry" />
        </mxCell>
        <mxCell id="9fTf8SFcKyJFwVSSnWBv-44" value="&lt;font style=&quot;font-size: 8px;&quot;&gt;Buscar&lt;/font&gt;" style="shape=mxgraph.ios7.icons.looking_glass;strokeColor=#878789;fillColor=none;fontColor=#878789;labelPosition=right;verticalLabelPosition=middle;align=left;verticalAlign=middle;fontSize=6;fontStyle=0;spacingTop=2;sketch=0;html=1;" parent="9fTf8SFcKyJFwVSSnWBv-42" vertex="1">
          <mxGeometry x="0.5" y="0.5" width="6" height="6" relative="1" as="geometry">
            <mxPoint x="-17" y="-3" as="offset" />
          </mxGeometry>
        </mxCell>
      </root>
    </mxGraphModel>
  </diagram>
</mxfile>
